<?xml version="1.0" standalone="no"?>
<!DOCTYPE svg PUBLIC "-//W3C//DTD SVG 20010904//EN"
 "http://www.w3.org/TR/2001/REC-SVG-20010904/DTD/svg10.dtd">
<svg version="1.0" xmlns="http://www.w3.org/2000/svg"
 width="300.000000pt" height="328.000000pt" viewBox="0 0 300.000000 328.000000"
 preserveAspectRatio="xMidYMid meet">
<metadata>
Created by potrace 1.10, written by Peter Selinger 2001-2011
</metadata>
<g transform="translate(0.000000,328.000000) scale(0.100000,-0.100000)"
fill="#000000" stroke="none">
<path d="M805 2858 c-27 -4 -58 -13 -67 -18 -10 -6 -26 -10 -36 -10 -25 0
-200 -89 -236 -120 -72 -62 -203 -200 -190 -200 3 0 -9 -20 -25 -44 -58 -84
-111 -268 -111 -384 1 -196 58 -364 176 -517 29 -38 837 -854 879 -888 35 -28
49 -7 55 80 l5 78 50 -3 c70 -4 95 4 95 30 0 12 -8 30 -17 41 -13 14 -14 18
-3 12 22 -13 149 -16 171 -5 32 18 21 -5 -23 -47 -126 -120 -438 -441 -438
-450 0 -26 43 -40 123 -42 l37 -1 0 -63 c0 -63 11 -87 39 -87 12 0 1171 1157
1309 1307 53 58 58 65 106 148 156 270 130 633 -62 875 -170 214 -422 330
-682 314 -90 -5 -224 -36 -245 -55 -5 -5 -17 -9 -26 -9 -9 0 -22 -7 -29 -15
-7 -8 -19 -15 -27 -15 -14 0 -142 -85 -154 -103 -3 -5 -12 -2 -20 5 -8 8 -36
29 -64 48 -27 19 -52 38 -55 41 -19 22 -184 80 -270 96 -50 9 -216 10 -265 1z
m355 -53 c119 -38 215 -91 291 -162 24 -22 27 -23 40 -7 22 27 110 89 164 117
367 185 806 56 1018 -298 150 -251 136 -600 -35 -836 -34 -48 -1347 -1379
-1360 -1379 -3 0 -5 15 -3 33 2 17 6 56 9 86 l5 53 -89 -4 c-50 -2 -90 -4 -90
-3 0 0 205 205 456 455 659 657 876 885 912 957 108 214 70 456 -97 623 -164
163 -390 202 -601 104 -61 -29 -94 -55 -185 -145 -61 -60 -115 -109 -121 -109
-5 0 -52 43 -104 95 -108 109 -156 143 -255 181 -60 23 -85 27 -175 27 -90 0
-115 -4 -175 -27 -93 -36 -154 -76 -217 -145 -92 -99 -138 -218 -138 -356 1
-101 11 -147 57 -243 35 -74 55 -96 479 -522 244 -244 442 -446 440 -447 -1
-1 -29 2 -62 7 -110 18 -104 23 -104 -80 0 -49 -4 -90 -9 -90 -5 0 -11 4 -13
9 -1 6 -194 203 -428 438 -234 235 -440 449 -457 474 -43 62 -98 178 -119 247
-24 82 -30 269 -11 359 56 263 246 483 493 572 116 42 170 51 294 46 78 -3
127 -10 190 -30z m-104 -255 c57 -10 164 -55 164 -70 0 -6 6 -10 14 -10 14 0
166 -146 166 -160 0 -4 -12 -11 -26 -14 -67 -17 -158 -95 -194 -166 -11 -22
-39 -52 -63 -69 -54 -37 -100 -89 -127 -142 -30 -57 -27 -194 5 -269 l22 -53
-26 -51 c-22 -42 -26 -63 -26 -133 0 -46 -2 -83 -5 -83 -3 0 -100 96 -215 213
-129 130 -222 233 -242 267 -102 176 -78 435 55 582 80 89 212 163 296 166 21
1 41 4 44 7 6 6 73 -1 158 -15z m1024 10 c76 -13 162 -44 208 -78 50 -36 127
-112 124 -123 -1 -5 2 -9 6 -9 10 0 48 -74 71 -141 49 -137 7 -350 -89 -463
-42 -49 -405 -416 -412 -416 -3 0 -8 37 -10 83 -2 57 -10 99 -27 139 l-24 56
21 45 c23 50 43 154 37 189 -15 76 -120 217 -162 218 -7 0 -13 5 -13 10 0 6
-7 10 -15 10 -9 0 -21 11 -27 25 -6 14 -15 25 -19 25 -4 0 -10 8 -13 18 -15
44 -132 142 -170 142 -34 0 -24 24 32 78 88 85 132 121 177 144 22 12 41 20
42 20 2 -1 10 1 18 4 25 10 128 31 155 33 14 0 54 -4 90 -9z m-493 -311 c47
-23 140 -121 150 -157 3 -14 23 -32 52 -47 46 -23 101 -76 136 -129 42 -63 38
-163 -10 -261 l-24 -50 27 -55 c35 -70 42 -180 17 -245 -20 -54 -72 -107 -141
-146 -33 -19 -54 -39 -58 -53 -10 -41 -92 -122 -147 -146 -75 -32 -174 -30
-246 6 -53 25 -124 100 -138 143 -3 11 -30 33 -59 50 -150 84 -200 270 -111
411 19 31 21 40 11 51 -48 52 -62 219 -25 295 23 48 83 107 134 131 19 9 35
23 35 31 0 29 63 113 109 145 85 58 200 69 288 26z"/>
<path d="M1407 2186 c-39 -14 -55 -25 -99 -65 -32 -28 -36 -43 -10 -40 40 6
112 -16 152 -48 13 -10 27 -6 74 17 35 18 75 30 97 30 22 0 39 4 39 9 0 5 -21
28 -46 50 -67 59 -131 74 -207 47z m116 -29 c9 -2 23 -9 29 -15 7 -7 18 -12
25 -12 30 0 11 -28 -23 -35 -21 -3 -47 -13 -60 -21 -16 -11 -28 -12 -41 -5
-10 5 -37 18 -60 29 -41 19 -42 20 -24 36 33 30 74 36 154 23z"/>
<path d="M1252 1953 c3 -33 12 -72 19 -86 l14 -26 67 65 66 64 -36 16 c-21 8
-59 18 -86 21 l-49 6 5 -60z m75 -31 c-30 -29 -34 -28 -43 15 -5 27 -3 32 17
35 13 2 30 -3 38 -10 12 -12 10 -17 -12 -40z"/>
<path d="M1575 1993 c-22 -9 -42 -18 -44 -20 -3 -2 24 -32 60 -68 l64 -65 17
38 c9 20 17 58 17 85 l1 47 -37 -1 c-21 0 -56 -7 -78 -16z m65 -21 c11 -5 14
-17 10 -41 l-5 -35 -34 34 c-30 31 -32 35 -15 41 23 9 25 9 44 1z"/>
<path d="M1131 1942 c-44 -49 -61 -90 -61 -151 0 -46 24 -131 38 -131 3 0 33
30 67 66 l62 66 -22 23 c-25 24 -47 109 -38 143 8 32 -8 27 -46 -16z m53 -131
c14 -16 13 -20 -25 -57 -33 -32 -41 -36 -50 -24 -15 23 -5 124 16 156 l18 28
13 -43 c7 -23 19 -50 28 -60z"/>
<path d="M1760 1933 c0 -49 -33 -133 -52 -133 -9 0 106 -130 122 -137 3 -2 14
18 24 43 25 60 23 120 -4 175 -23 45 -67 99 -82 99 -4 0 -8 -21 -8 -47z m66
-65 c16 -31 16 -129 0 -145 -4 -4 -23 10 -44 30 l-37 37 17 32 c10 18 20 45
24 60 7 33 18 29 40 -14z"/>
<path d="M1407 1852 l-67 -68 73 -72 73 -73 130 3 129 3 -136 137 -136 137
-66 -67z m168 -79 l93 -98 -66 -3 c-37 -2 -76 -1 -89 3 -21 5 -66 44 -107 93
l-20 23 44 39 c24 22 46 40 48 40 3 0 46 -44 97 -97z"/>
<path d="M1218 1667 c-32 -34 -58 -64 -58 -66 0 -1 69 -73 154 -158 l154 -155
65 67 65 67 -152 154 c-84 85 -157 154 -162 154 -5 0 -35 -29 -66 -63z m177
-86 c61 -60 121 -120 134 -135 l25 -26 -39 -40 c-22 -22 -42 -40 -45 -40 -11
0 -271 263 -265 268 3 3 20 23 38 44 17 21 34 38 37 38 3 0 55 -49 115 -109z"/>
<path d="M1560 1565 c0 -6 79 -79 90 -83 6 -2 90 75 90 84 0 2 -40 4 -90 4
-49 0 -90 -2 -90 -5z"/>
<path d="M1087 1503 c-31 -87 -16 -166 47 -240 32 -38 48 -42 45 -10 -5 41 13
108 36 135 l23 27 -62 68 c-34 37 -64 67 -67 67 -3 0 -13 -21 -22 -47z m76
-51 c32 -33 36 -41 24 -51 -8 -6 -20 -32 -27 -58 l-13 -46 -18 22 c-10 12 -21
42 -24 66 -7 44 1 105 14 105 4 0 24 -17 44 -38z"/>
<path d="M1762 1480 c-57 -61 -61 -68 -46 -81 26 -21 44 -73 44 -124 0 -25 4
-45 8 -45 14 0 69 63 88 100 9 19 18 55 18 80 1 43 -30 141 -43 139 -3 -1 -34
-32 -69 -69z m78 -62 c0 -45 -25 -118 -41 -118 -4 0 -11 15 -14 33 -4 17 -14
44 -23 59 -16 27 -15 28 23 62 46 41 55 35 55 -36z"/>
<path d="M1593 1303 c-45 -47 -59 -69 -50 -75 20 -13 80 -28 115 -28 32 0 32
1 32 48 0 26 -8 64 -18 85 l-17 37 -62 -67z m60 -35 c5 -33 3 -38 -14 -38 -11
0 -29 5 -40 10 -18 10 -17 12 14 39 17 16 32 29 33 28 1 -1 4 -19 7 -39z"/>
<path d="M1272 1340 c-7 -11 -15 -47 -19 -80 l-6 -60 36 0 c30 0 123 24 135
35 3 3 -116 119 -126 123 -4 1 -13 -7 -20 -18z m62 -64 l25 -34 -35 -4 c-40
-5 -50 7 -40 47 8 33 19 32 50 -9z"/>
<path d="M1417 1157 c-33 -17 -74 -30 -97 -31 -22 0 -40 -3 -40 -6 0 -12 65
-68 96 -84 88 -43 172 -28 248 45 l51 49 -43 0 c-44 0 -142 35 -142 51 0 12
-7 10 -73 -24z m73 -16 c0 -6 25 -18 56 -28 l55 -17 -23 -17 c-32 -24 -103
-41 -142 -34 -18 4 -45 16 -60 28 l-28 22 56 19 c31 11 56 23 56 28 0 4 7 8
15 8 8 0 15 -4 15 -9z"/>
</g>
</svg>
